<svg xmlns="http://www.w3.org/2000/svg" version="1.1" xmlns:xlink="http://www.w3.org/1999/xlink" width="1500" height="1500" viewBox="0 0 1500 1500"><rect width="1500" height="1500" x="0" y="0" id="background" stroke="transparent" fill="#000000"></rect><svg xml:space="preserve" width="1000" height="1000" data-version="2" data-id="lg_waRhbo6RXDHWbR9Nhz" viewBox="0 0 429 571" x="250" y="250"><rect width="100%" height="100%" fill="transparent"></rect><path fill="#454545" d="M209.992 6.732 69.32 45.932v9.184c0 9.912-29.736 27.776-56.448 37.52L4.024 95.94v213.864c0 70.952 35.448 137.368 102.48 191.968a425.6 425.6 0 0 0 101.976 61.376l5.992 2.352 5.992-2.352c2.072-.84 51.744-20.552 101.92-61.376 67.088-54.6 102.592-120.96 102.592-191.968V95.884l-8.904-3.136c-26.712-9.8-56.448-27.664-56.448-37.576v-9.24L214.472 5.5z"></path><path fill="#f6f6f6" stroke="#4b4b4b" stroke-width="2" d="m49.2.22-25.12 7v1.64c0 1.77-5.31 4.96-10.08 6.7l-1.58.59v38.19c0 12.67 6.33 24.53 18.3 34.28a76 76 0 0 0 18.21 10.96L50 100l1.07-.42c.37-.15 9.24-3.67 18.2-10.96 11.98-9.75 18.32-21.6 18.32-34.28v-38.2L86 15.58c-4.77-1.75-10.08-4.94-10.08-6.71V7.22L50 0z" paint-order="stroke" transform="matrix(5.2527 0 0 5.3374 -48.16 18.82)"></path><g transform="translate(203.94 170.44)"><filter id="a" width="147.6%" height="146.8%" x="-23.8%" y="-23.4%"><feGaussianBlur in="SourceAlpha"></feGaussianBlur><feOffset dx="4" dy="4" result="oBlur"></feOffset><feFlood flood-color="#CC3980" flood-opacity="1"></feFlood><feComposite in2="oBlur" operator="in"></feComposite><feMerge><feMergeNode></feMergeNode><feMergeNode in="SourceGraphic"></feMergeNode></feMerge></filter><g filter="url(#a)"><path fill="#000000" d="M11.18 2.38v-3.84h40.48v43.52q-7.36 7.36-18 11.52-10.64 4.16-23.76 4.16-13.44 0-24.8-4.4-11.36-4.4-19.84-12.32t-13.2-18.48Q-52.66 11.98-52.66-.5q0-12.48 4.72-23.04 4.72-10.56 13.2-18.48t19.84-12.32q11.36-4.4 24.8-4.4 5.76 0 12.56.8 6.8.8 13.04 2.16 6.24 1.36 10.56 3.28l-.8 8.96h-.96q-6.4-5.6-15.36-8.48Q19.98-54.9 9.9-54.9q-15.04 0-26.4 6.8t-17.68 19.04Q-40.5-16.82-40.5-.5t6.32 28.56Q-27.86 40.3-16.5 47.1q11.36 6.8 26.4 6.8 9.28 0 17.2-2.56t13.68-7.36V2.38Z"></path><rect width="104.32" height="116.48" x="-52.16" y="-58.24" fill="none" rx="0" ry="0"></rect></g></g><g transform="rotate(1 -21944.26 13159.78)scale(2.4407)"><linearGradient id="b" x1="0" x2="1" y1="0" y2="0" gradientUnits="objectBoundingBox"><stop offset="0%" stop-color="#4f4f4f"></stop><stop offset="100%" stop-color="#b3b3b3"></stop></linearGradient><path fill="url(#b)" d="M78.3 81.2c.5-.7 1-1.5 1.4-2.3 13.3-23.8-2.2-56.2-5.1-66 0-.2-.1-.5-.2-.7 0-.1 0-.1-.1-.2-.3-.7-.7-1.2-1.3-1.6-8.5-4.9-33.7-8.7-47.3-6.3-3 .5-6.1 1.5-7.7 3-3.8 3.6 10 21.9 10 36.6 0 3.6-.5 6.6-1.1 9-2-.7-4.1-1.1-6.4-1.1C11.4 51.6 4 58.2 4 66.3s7.4 14.6 16.5 14.6c5.3 0 10-2.2 13.1-5.7l.1-.1c0-.1.1-.1.1-.2.6-.7 1-1.4 1.5-2.1 9.6-15 6-32 2.3-46.5h.1c9.2-1.4 22.1-.6 24.3-.5 3.5 7.1 8.4 16.3 8.8 24.6.2 3.6-.1 6.6-.6 9.1-2-.6-4.2-.9-6.5-.8-9.1.5-16.2 7.4-15.7 15.5.4 8.1 8.2 14.2 17.3 13.7 5.3-.3 9.9-2.8 12.7-6.4 0-.1.1-.1.1-.1.2-.1.2-.1.2-.2M37 23.6c-.4-1.6-.8-3.2-1.2-4.7.2 0 .4-.1.7-.1 10.1-2.2 17.4-1.3 22.6.5.4 1.3 1.1 2.7 1.8 4.3-7-.9-15.9-1-23.9 0" transform="translate(-44.5 -45.65)"></path></g><path fill="#f6f6f6" stroke="#000000" stroke-width="1.69" d="M87.17 106.043h255.09M89.989 242.316h255.088"></path><path fill="#454545" d="M264.046 109.486c-3.208-2.55-12.306-4.615-17.404-2.681-.747.263-1.45.615-1.89 1.01-1.846 1.715 4.834 10.505 4.79 17.58 0 1.715-.22 3.165-.527 4.308-.923-.352-1.978-.528-3.077-.528-4.395 0-7.91 3.12-7.91 7.032s3.56 7.032 7.91 7.032c2.594 0 4.879-1.098 6.33-2.769.307-.395.615-.79.834-1.23 4.703-7.428 2.637-15.866.88-22.898 2.636.132 5.273 1.099 6.064 2.857.088.22.967-.791.967-1.187 0-1.802-2.593-3.56-7.427-3.252-.132-.572-.264-1.1-.396-1.626 5.933-1.143 8.614 2.46 9.45 3.076.879.615 3.032-5.406 1.406-6.724"></path></svg></svg>